<?xml version="1.0" encoding="UTF-8" standalone="no"?>
<svg
   xmlns:dc="http://purl.org/dc/elements/1.1/"
   xmlns:cc="http://creativecommons.org/ns#"
   xmlns:rdf="http://www.w3.org/1999/02/22-rdf-syntax-ns#"
   xmlns:svg="http://www.w3.org/2000/svg"
   xmlns="http://www.w3.org/2000/svg"
   xmlns:sodipodi="http://sodipodi.sourceforge.net/DTD/sodipodi-0.dtd"
   xmlns:inkscape="http://www.inkscape.org/namespaces/inkscape"
   enable-background="new 0 0 48 48"
   height="25px"
   id="Layer_1"
   version="1.1"
   viewBox="0 0 48 48"
   width="25px"
   xml:space="preserve"
   sodipodi:docname="left-icon.svg"
   inkscape:version="1.0.1 (3bc2e813f5, 2020-09-07)"><metadata
     id="metadata10"><rdf:RDF><cc:Work
         rdf:about=""><dc:format>image/svg+xml</dc:format><dc:type
           rdf:resource="http://purl.org/dc/dcmitype/StillImage" /></cc:Work></rdf:RDF></metadata><defs
     id="defs8" /><sodipodi:namedview
     pagecolor="#ffffff"
     bordercolor="#666666"
     borderopacity="1"
     objecttolerance="10"
     gridtolerance="10"
     guidetolerance="10"
     inkscape:pageopacity="0"
     inkscape:pageshadow="2"
     inkscape:window-width="760"
     inkscape:window-height="579"
     id="namedview6"
     showgrid="false"
     inkscape:zoom="11.208333"
     inkscape:cx="24"
     inkscape:cy="24"
     inkscape:window-x="0"
     inkscape:window-y="0"
     inkscape:window-maximized="0"
     inkscape:current-layer="Layer_1" /><g
     id="Layer_4"
     style="fill:#e6e6e6"><path
       d="M 24,0 C 10.745,0 0,10.745 0,24 0,37.255 10.745,48 24,48 37.255,48 48,37.255 48,24 48,10.745 37.255,0 24,0 Z m 4.979,36.098 -0.002,-0.002 -0.002,0.002 -10.926,-10.928 -0.008,0.008 -1.16,-1.161 0.007,-0.007 -0.007,-0.007 0.517,-0.518 -0.005,-0.005 11.578,-11.578 0.006,0.005 0.004,-0.005 1.07,1.069 -0.004,0.004 1.064,1.064 -9.955,9.956 9.963,9.963 z"
       fill="#241F20"
       id="path2"
       style="fill:#e6e6e6" /></g></svg>
