<?xml version="1.0" encoding="UTF-8" standalone="no"?>
<svg
   xmlns:dc="http://purl.org/dc/elements/1.1/"
   xmlns:cc="http://creativecommons.org/ns#"
   xmlns:rdf="http://www.w3.org/1999/02/22-rdf-syntax-ns#"
   xmlns:svg="http://www.w3.org/2000/svg"
   xmlns="http://www.w3.org/2000/svg"
   xmlns:sodipodi="http://sodipodi.sourceforge.net/DTD/sodipodi-0.dtd"
   xmlns:inkscape="http://www.inkscape.org/namespaces/inkscape"
   enable-background="new 0 0 48 48"
   height="25px"
   id="Layer_1"
   version="1.1"
   viewBox="0 0 48 48"
   width="25px"
   xml:space="preserve"
   sodipodi:docname="right-icon.svg"
   inkscape:version="1.0.1 (3bc2e813f5, 2020-09-07)"><metadata
     id="metadata10"><rdf:RDF><cc:Work
         rdf:about=""><dc:format>image/svg+xml</dc:format><dc:type
           rdf:resource="http://purl.org/dc/dcmitype/StillImage" /></cc:Work></rdf:RDF></metadata><defs
     id="defs8" /><sodipodi:namedview
     pagecolor="#ffffff"
     bordercolor="#666666"
     borderopacity="1"
     objecttolerance="10"
     gridtolerance="10"
     guidetolerance="10"
     inkscape:pageopacity="0"
     inkscape:pageshadow="2"
     inkscape:window-width="768"
     inkscape:window-height="581"
     id="namedview6"
     showgrid="false"
     inkscape:zoom="7.9254885"
     inkscape:cx="25.663014"
     inkscape:cy="30.176694"
     inkscape:window-x="0"
     inkscape:window-y="0"
     inkscape:window-maximized="0"
     inkscape:current-layer="Layer_1" /><g
     id="Layer_4"
     style="fill:#e6e6e6"><path
       d="M 24,0 C 10.745,0 0,10.745 0,24 0,37.255 10.745,48 24,48 37.254,48 48,37.255 48,24 48,10.745 37.254,0 24,0 Z m 7.035,24.017 -1.146,1.147 -0.008,-0.008 -10.798,10.799 -0.002,-0.002 -0.002,0.003 -2.115,-2.113 9.847,-9.847 -9.839,-9.839 1.053,-1.052 -0.005,-0.005 1.057,-1.057 0.005,0.005 0.005,-0.005 11.442,11.442 -0.006,0.005 0.512,0.512 -0.006,0.007 z"
       fill="#241F20"
       id="path2"
       style="fill:#e6e6e6" /></g></svg>
